<svg width="16.000000" height="16.000000" viewBox="0 0 16 16" fill="none" xmlns="http://www.w3.org/2000/svg" xmlns:xlink="http://www.w3.org/1999/xlink">
	<desc>
			Created with Pixso.
	</desc>
	<defs>
		<clipPath id="clip28_4078">
			<rect width="16.000000" height="16.000000" fill="white" fill-opacity="0"/>
		</clipPath>
	</defs>
	<rect width="16.000000" height="16.000000" fill="#FFFFFF" fill-opacity="0"/>
	<g clip-path="url(#clip28_4078)">
		<path d="M6.56 11.38C6.47 11.38 6.38 11.36 6.3 11.33C6.22 11.3 6.15 11.25 6.08 11.19L3.52 8.63C3.46 8.56 3.41 8.49 3.37 8.41C3.34 8.33 3.32 8.24 3.32 8.15C3.32 8.06 3.34 7.98 3.37 7.89C3.4 7.81 3.45 7.74 3.52 7.68C3.58 7.61 3.65 7.56 3.73 7.53C3.82 7.5 3.9 7.48 3.99 7.48C4.08 7.48 4.17 7.5 4.25 7.53C4.33 7.57 4.4 7.62 4.47 7.68L6.56 9.77L11.52 4.8C11.65 4.68 11.82 4.62 11.99 4.62C12.17 4.62 12.33 4.69 12.46 4.81C12.58 4.94 12.65 5.1 12.65 5.28C12.66 5.45 12.59 5.62 12.47 5.75L7.03 11.19C6.96 11.25 6.89 11.3 6.81 11.33C6.73 11.36 6.64 11.38 6.56 11.38Z" fill="#171717" fill-opacity="1.000000" fill-rule="nonzero"/>
	</g>
</svg>
