<svg width="137.000000" height="24.000000" viewBox="0 0 137 24" fill="none" xmlns="http://www.w3.org/2000/svg" xmlns:xlink="http://www.w3.org/1999/xlink">
	<desc>
			Created with Pixso.
	</desc>
	<defs/>
	<path id="Work" d="M30.09 19L27.49 19L23.39 4.45L26.22 4.45L28.84 15.14L28.98 15.14L31.77 4.45L34.35 4.45L37.16 15.15L37.29 15.15L39.9 4.45L42.74 4.45L38.63 19L36.04 19L33.12 8.79L33.01 8.79L30.09 19ZM65.99 19L63.42 19L63.42 4.45L65.99 4.45L65.99 12.47L66.17 12.47L70.09 8.09L73.1 8.09L68.87 12.79L73.35 19L70.27 19L66.93 14.33L65.99 15.33L65.99 19ZM58.06 19L55.49 19L55.49 8.09L57.98 8.09L57.98 9.9L58.09 9.9C58.49 8.64 59.54 7.93 60.79 7.93C61.07 7.93 61.48 7.96 61.71 8L61.71 10.37C61.49 10.29 60.95 10.22 60.51 10.22C59.1 10.22 58.06 11.2 58.06 12.58L58.06 19ZM53.32 13.58C53.32 16.96 51.29 19.21 48.09 19.21C44.89 19.21 42.86 16.96 42.86 13.58C42.86 10.2 44.89 7.95 48.09 7.95C51.29 7.95 53.32 10.2 53.32 13.58ZM45.46 13.58C45.46 15.57 46.33 17.15 48.1 17.15C49.84 17.15 50.71 15.57 50.71 13.58C50.71 11.58 49.84 9.98 48.1 9.98C46.33 9.98 45.46 11.58 45.46 13.58Z" fill="#A6ADFF" fill-opacity="1.000000" fill-rule="evenodd"/>
	<path id="Space" d="M88.42 8.09L86.71 8.09C86.54 6.65 85.2 5.81 83.45 5.81C81.51 5.81 80.23 6.84 80.23 8.23C80.23 9.79 81.97 10.36 83.04 10.64L84.52 11.04C86.03 11.44 88.62 12.32 88.62 15.04C88.62 17.4 86.71 19.25 83.36 19.25C80.23 19.25 78.3 17.63 78.13 15.25L79.95 15.25C80.09 16.89 81.62 17.66 83.36 17.66C85.37 17.66 86.91 16.61 86.91 15.02C86.91 13.57 85.54 13.03 84.01 12.6L82.22 12.09C79.95 11.44 78.53 10.27 78.53 8.31C78.53 5.87 80.72 4.25 83.5 4.25C86.31 4.25 88.34 5.89 88.42 8.09ZM92.96 23.09L91.28 23.09L91.28 8.09L92.91 8.09L92.91 9.82L93.11 9.82C93.47 9.25 94.13 7.95 96.25 7.95C99.01 7.95 100.92 10.13 100.92 13.57C100.92 17.04 99.01 19.22 96.28 19.22C94.18 19.22 93.47 17.92 93.11 17.32L92.96 17.32L92.96 23.09ZM109.92 17.52C109.58 18.23 108.58 19.25 106.68 19.25C104.61 19.25 102.96 18.03 102.96 15.9C102.96 13.4 105.17 12.95 107.19 12.69C109.18 12.43 110.01 12.51 110.01 11.7L110.01 11.64C110.01 10.24 109.25 9.42 107.71 9.42C106.11 9.42 105.23 10.27 104.86 11.07L103.27 10.5C104.13 8.51 106 7.95 107.65 7.95C109.04 7.95 111.68 8.34 111.68 11.81L111.68 19L110.01 19L110.01 17.52L109.92 17.52ZM123.47 15.81C123.19 17.75 121.6 19.22 119.18 19.22C116.11 19.22 114.24 16.87 114.24 13.6C114.24 10.27 116.2 7.95 119.15 7.95C121.45 7.95 123.19 9.31 123.47 11.35L121.8 11.35C121.54 10.36 120.66 9.45 119.18 9.45C117.22 9.45 115.92 11.07 115.92 13.54C115.92 16.07 117.2 17.72 119.18 17.72C120.49 17.72 121.48 17.01 121.8 15.81L123.47 15.81ZM134.84 16.47C134.32 18.12 132.71 19.22 130.49 19.22C127.34 19.22 125.4 16.98 125.4 13.62C125.4 10.27 127.37 7.95 130.32 7.95C132.59 7.95 135.01 9.34 135.01 13.4L135.01 14.11L127.09 14.11C127.17 16.45 128.52 17.72 130.49 17.72C131.8 17.72 132.79 17.15 133.21 16.01L134.84 16.47ZM96.06 9.45C94.01 9.45 92.93 11.1 92.93 13.54C92.93 16.01 94.04 17.72 96.06 17.72C98.16 17.72 99.24 15.87 99.24 13.54C99.24 11.24 98.19 9.45 96.06 9.45ZM130.32 9.45C128.4 9.45 127.2 10.96 127.09 12.66L133.3 12.66C133.3 10.81 132.14 9.45 130.32 9.45ZM104.64 15.98C104.64 17.15 105.61 17.75 106.94 17.75C108.93 17.75 110.01 16.41 110.01 15.04L110.01 13.51C109.72 13.85 107.82 14.05 107.11 14.14C105.8 14.31 104.64 14.7 104.64 15.98Z" fill="#171717" fill-opacity="1.000000" fill-rule="evenodd"/>
	<path id="Vector 1" d="M1 6L15 6L15 " stroke="#171717" stroke-opacity="1.000000" stroke-width="1.500000"/>
	<path id="Vector 2" d="M14 18L0 18L0 " stroke="#171717" stroke-opacity="1.000000" stroke-width="1.500000"/>
	<path id="Vector 3" d="M4 19.5L9.5 " stroke="#171717" stroke-opacity="1.000000" stroke-width="2.000000"/>
</svg>
