<svg width="44.000000" height="44.000000" viewBox="0 0 44 44" fill="none" xmlns="http://www.w3.org/2000/svg" xmlns:xlink="http://www.w3.org/1999/xlink">
	<desc>
			Created with Pixso.
	</desc>
	<defs>
		<clipPath id="clip15_150">
			<rect id="logo" width="44.000000" height="44.000000" fill="white" fill-opacity="0"/>
		</clipPath>
	</defs>
	<rect id="logo" width="44.000000" height="44.000000" fill="#F3F4F8" fill-opacity="0"/>
	<g clip-path="url(#clip15_150)">
		<path id="Polygon 1" d="M4.75 14.07L0.03 6.29L9.45 6.29L4.75 14.07Z" fill="#1E22AA" fill-opacity="1.000000" fill-rule="nonzero"/>
		<path id="Polygon 2" d="M17 15.46L13.35 21.76L20.65 21.76L17 15.46Z" fill="#1E22AA" fill-opacity="1.000000" fill-rule="nonzero"/>
		<path id="Polygon 3" d="M21.32 23.02L21.32 37.96L30.03 37.96L21.32 23.02Z" fill="#1E22AA" fill-opacity="1.000000" fill-rule="nonzero"/>
		<path id="Ellipse 4" d="M43.89 30.13C43.89 34.43 40.4 37.92 36.08 37.92C31.76 37.92 28.26 34.43 28.26 30.13C28.26 25.82 31.76 22.33 36.08 22.33C40.4 22.33 43.89 25.82 43.89 30.13Z" fill="#1E22AA" fill-opacity="1.000000" fill-rule="nonzero"/>
		<path id="Rectangle 70" d="M4.82 22.18L12.63 22.18L12.63 37.92L4.82 37.92L4.82 22.18Z" fill="#1E22AA" fill-opacity="1.000000" fill-rule="nonzero"/>
		<path id="Subtract" d="M13.09 37.92C17.49 37.92 21.06 34.39 21.06 30.05C21.06 25.7 17.49 22.18 13.09 22.18L13.09 37.92Z" fill="#1E22AA" fill-opacity="1.000000" fill-rule="evenodd"/>
		<path id="Subtract" d="M25.88 29.81C25.88 29.81 25.88 29.81 25.88 29.81C28.02 28.55 29.49 27.07 27.96 24.17C27.12 22.57 25.66 22.03 21.6 22.41C21.57 22.43 21.53 22.45 21.5 22.47L25.88 29.81Z" fill="#1E22AA" fill-opacity="1.000000" fill-rule="evenodd"/>
		<path id="Rectangle 71" d="M4.75 14.66L12.68 14.66L12.68 21.8L4.75 21.8L4.75 14.66Z" fill="#1E22AA" fill-opacity="1.000000" fill-rule="nonzero"/>
		<path id="Rectangle 73" d="M17.15 14.92L22.21 6.44L31.02 21.88L21.22 21.88L17.15 14.92Z" fill="#1E22AA" fill-opacity="1.000000" fill-rule="nonzero"/>
		<path id="Rectangle 72" d="M9.88 6.29L17.61 6.29L12.63 14.69L4.82 14.69L9.88 6.29Z" fill="#1E22AA" fill-opacity="1.000000" fill-rule="nonzero"/>
	</g>
</svg>
